<?xml version="1.0" encoding="utf-8"?>
<!-- Generator: Adobe Illustrator 16.0.0, SVG Export Plug-In . SVG Version: 6.00 Build 0)  -->
<!DOCTYPE svg PUBLIC "-//W3C//DTD SVG 1.1//EN" "http://www.w3.org/Graphics/SVG/1.1/DTD/svg11.dtd">
<svg version="1.1" id="Layer_1" xmlns="http://www.w3.org/2000/svg" xmlns:xlink="http://www.w3.org/1999/xlink" x="0px" y="0px"
	 width="640px" height="257.22px" viewBox="0 0 640 257.22" enable-background="new 0 0 640 257.22" xml:space="preserve">
<g>
	<path d="M83.487,140.059c0.597,14.823-6.987,26.247-6.606,40.989l-1.016-0.508c-0.549-14.399-6.985-27.016-6.268-41.326
		C74.43,138.999,78.96,139.502,83.487,140.059 M66.208,153.101c2.756,9.189,1.403,20.07,4.407,29.129
		c6.943,12.831-0.083,28.075-0.511,41.666l-4.569,24.903c-18.591-1.949-37.817-16.268-44.043-34.554
		c-8.044-22.316-1.908-47.891,16.94-63.179c7.156-5.635,15.242-8.977,23.88-11.008C63.966,144.12,65.236,148.614,66.208,153.101
		 M113.134,155.64c-4.153,7.701-10.08,14.647-14.569,22.19c-4.829,8.891-12.747,16.516-16.769,25.748
		c-1.528,1.771-3.261,4.358-5.591,4.907c-0.676-4.907,2.032-9.403,2.032-14.229c1.609-10.756,2.289-21.849,6.946-31.333
		l4.743-21.176C98.311,144.759,106.523,148.614,113.134,155.64 M124.479,215.769c-8.213,20.154-29.09,33.161-50.475,33.704
		c-1.524-3.815-1.146-8.47-1.695-12.706c-1.143-16.132,13.508-26.549,19.48-40.137c4.194-9.108,12.534-17.281,20.16-24.223
		c2.286-3.56,4.445-7.152,5.927-11.014C129.48,175.881,132.061,198.452,124.479,215.769"/>
	<path d="M176.006,197.216c0,3.007-0.933,5.252-2.788,6.74c-1.808,1.493-4.02,2.237-6.63,2.237c-2.593,0-4.826-0.76-6.71-2.272
		c-1.855-1.488-2.779-3.724-2.779-6.705v-15.907h3.001v14.992c0,1.534,0.086,2.609,0.26,3.224c0.195,0.687,0.573,1.325,1.134,1.903
		c1.246,1.394,2.933,2.091,5.056,2.091c2.126,0,3.813-0.697,5.059-2.091c0.561-0.578,0.938-1.217,1.137-1.903
		c0.166-0.614,0.254-1.689,0.254-3.224v-14.992h3.006V197.216z"/>
	<path d="M203.168,205.716h-3.482l-12.204-18.867c-0.044-0.106-0.115-0.218-0.2-0.348c-0.089-0.136-0.178-0.302-0.272-0.489
		c-0.171-0.296-0.39-0.793-0.661-1.472v20.958h-3.004v-24.189h3.919l11.984,18.436c0.071,0.125,0.13,0.226,0.183,0.296
		c0.045,0.071,0.098,0.171,0.146,0.277c0.05,0.105,0.103,0.247,0.166,0.418c0.059,0.171,0.15,0.407,0.271,0.703
		c0.029,0.041,0.048,0.09,0.059,0.145c0.012,0.046,0.038,0.116,0.091,0.217v-20.491h3.004V205.716z"/>
	<rect x="211.127" y="181.314" width="3.004" height="24.184"/>
	<path d="M239.178,181.309l-9.376,24.814h-1.834l-9.527-24.814h3.228l7.141,18.878c0.122,0.32,0.21,0.709,0.26,1.171
		c0-0.367,0.07-0.758,0.218-1.171l6.89-18.878H239.178z"/>
	<polygon points="257.462,205.498 243.537,205.498 243.537,181.309 257.129,181.309 257.129,183.837 246.544,183.837 
		246.544,191.904 255.297,191.904 255.297,194.433 246.544,194.433 246.544,202.962 257.462,202.962 	"/>
	<path d="M275.017,187.872c0-1.518-0.438-2.628-1.323-3.332c-0.558-0.467-1.73-0.703-3.512-0.703h-3.925v8.76h3.925
		C273.401,192.597,275.017,191.024,275.017,187.872 M279.595,205.498h-3.447l-6.665-10.367h-3.226v10.367h-3.003v-24.189h7.365
		c0.732,0,1.374,0.03,1.923,0.096c0.55,0.06,1.045,0.165,1.482,0.296c0.44,0.13,0.845,0.317,1.211,0.554
		c0.366,0.226,0.733,0.508,1.099,0.855c1.27,1.246,1.905,2.818,1.905,4.728c0,2.001-0.706,3.68-2.124,5.026
		c-0.927,0.898-2.147,1.504-3.665,1.83L279.595,205.498z"/>
	<path d="M298.242,182.928l-1.388,2.492c-0.537-0.317-1.016-0.578-1.432-0.79c-0.417-0.201-0.78-0.361-1.102-0.456
		c-1.098-0.348-2.209-0.514-3.332-0.514c-1.394,0-2.51,0.308-3.352,0.932c-0.842,0.627-1.264,1.447-1.264,2.477
		c0,0.904,0.375,1.684,1.137,2.344c0.753,0.657,2.366,1.648,4.834,2.965c1.713,0.913,2.98,1.728,3.81,2.458
		c1.247,1.075,1.87,2.541,1.87,4.401c0,2.072-0.717,3.715-2.147,4.926c-1.426,1.206-3.36,1.814-5.803,1.814
		c-1.663,0-3.151-0.267-4.474-0.81c-0.756-0.29-1.792-0.894-3.109-1.795l1.536-2.382c0.561,0.389,1.081,0.72,1.559,0.991
		c0.476,0.271,0.887,0.462,1.226,0.587c1.099,0.413,2.259,0.619,3.482,0.619c1.465,0,2.596-0.317,3.388-0.95
		c0.797-0.633,1.193-1.543,1.193-2.713c0-0.73-0.125-1.304-0.367-1.725c-0.44-0.804-1.122-1.464-2.049-1.972
		c-0.295-0.176-0.78-0.437-1.45-0.793c-0.671-0.353-1.536-0.814-2.584-1.371c-3.447-1.857-5.166-3.967-5.166-6.343
		c0-1.926,0.73-3.484,2.198-4.654c1.467-1.168,3.393-1.755,5.791-1.755c1.539,0,2.892,0.196,4.067,0.587
		C296.121,181.765,297.093,182.243,298.242,182.928"/>
	<rect x="304.208" y="181.314" width="3.004" height="24.184"/>
	<path d="M332.304,193.257c0-2.664-0.909-4.896-2.718-6.701c-1.806-1.809-4.065-2.719-6.778-2.719h-4.581v19.139h4.581
		c2.957,0,5.13-0.738,6.522-2.21c0.44-0.462,0.848-0.986,1.206-1.589c0.372-0.603,0.679-1.222,0.939-1.89
		c0.261-0.657,0.453-1.328,0.603-2.016C332.22,194.588,332.304,193.92,332.304,193.257 M335.445,193.301
		c0,3.267-1.08,6.166-3.261,8.681c-1.092,1.271-2.333,2.176-3.715,2.719c-1.377,0.532-3.12,0.798-5.222,0.798h-8.024v-24.184h8.06
		c3.521,0,6.422,1.124,8.725,3.372C334.3,186.902,335.445,189.778,335.445,193.301"/>
	<path d="M352.094,195.604l-3.921-11.063l-3.956,11.063H352.094z M358.767,205.498h-3.227l-2.493-7.149h-9.78l-2.493,7.149h-3.226
		l9.015-24.887h3.224L358.767,205.498z"/>
	<path d="M380.112,193.257c0-2.664-0.898-4.896-2.707-6.701c-1.806-1.809-4.068-2.719-6.78-2.719h-4.584v19.139h4.584
		c2.954,0,5.126-0.738,6.522-2.21c0.435-0.462,0.844-0.986,1.208-1.589c0.366-0.603,0.682-1.222,0.935-1.89
		c0.261-0.657,0.461-1.328,0.607-2.016C380.039,194.588,380.112,193.92,380.112,193.257 M383.265,193.301
		c0,3.267-1.086,6.166-3.261,8.681c-1.097,1.271-2.338,2.176-3.721,2.719c-1.376,0.532-3.117,0.798-5.222,0.798h-8.021v-24.184
		h8.063c3.517,0,6.422,1.124,8.72,3.372C382.119,186.902,383.265,189.778,383.265,193.301"/>
	<polygon points="402.993,205.498 389.065,205.498 389.065,181.309 402.662,181.309 402.662,183.837 392.066,183.837 
		392.066,191.904 400.831,191.904 400.831,194.433 392.066,194.433 392.066,202.962 402.993,202.962 	"/>
	<path d="M435.038,193.257c0-2.664-0.904-4.896-2.713-6.701c-1.809-1.809-4.062-2.719-6.78-2.719h-4.578v19.139h4.578
		c2.954,0,5.132-0.738,6.528-2.21c0.437-0.462,0.845-0.986,1.211-1.589c0.364-0.603,0.671-1.222,0.932-1.89
		c0.255-0.657,0.456-1.328,0.603-2.016C434.965,194.588,435.038,193.92,435.038,193.257 M438.186,193.301
		c0,3.267-1.081,6.166-3.262,8.681c-1.097,1.271-2.332,2.176-3.715,2.719c-1.382,0.532-3.125,0.798-5.222,0.798h-8.026v-24.184
		h8.067c3.511,0,6.417,1.124,8.72,3.372C437.039,186.902,438.186,189.778,438.186,193.301"/>
	<path d="M462.823,193.406c0-2.693-0.869-5.01-2.607-6.96c-1.729-1.96-3.802-2.927-6.224-2.927c-2.446,0-4.532,0.967-6.268,2.927
		c-1.732,1.95-2.604,4.267-2.604,6.96c0,2.74,0.871,5.086,2.604,7.041c1.714,1.926,3.797,2.895,6.268,2.895
		c2.438,0,4.519-0.969,6.224-2.895C461.954,198.492,462.823,196.146,462.823,193.406 M466.119,193.406
		c0,3.639-1.153,6.645-3.445,9.013c-2.268,2.376-5.162,3.558-8.682,3.558c-3.521,0-6.428-1.182-8.72-3.558
		c-2.303-2.368-3.448-5.374-3.448-9.013c0-3.614,1.146-6.604,3.448-8.978c2.292-2.362,5.198-3.557,8.72-3.557
		c3.52,0,6.414,1.194,8.682,3.557C464.966,186.742,466.119,189.743,466.119,193.406"/>
	<path d="M493.348,188.646c0-1.619-0.456-2.871-1.353-3.78c-0.685-0.688-1.938-1.029-3.744-1.029h-4.136v9.972
		c1.347,0.146,2.416,0.217,3.221,0.217c1.376,0,2.414-0.157,3.146-0.467c0.886-0.378,1.578-0.991,2.091-1.854
		C493.087,190.829,493.348,189.813,493.348,188.646 M496.459,188.456c0,1.252-0.2,2.373-0.603,3.392
		c-0.399,1.016-0.978,1.876-1.724,2.585c-0.744,0.709-1.654,1.252-2.711,1.632c-1.064,0.378-2.251,0.565-3.573,0.565
		c-0.317,0-0.784-0.022-1.412-0.071c-0.619-0.046-1.393-0.122-2.321-0.223v9.162h-3.006v-24.189h7.578
		c2.694,0,4.66,0.639,5.906,1.915C495.835,184.486,496.459,186.234,496.459,188.456"/>
	<path d="M520.299,193.406c0-2.693-0.866-5.01-2.599-6.96c-1.735-1.96-3.815-2.927-6.237-2.927c-2.434,0-4.524,0.967-6.26,2.927
		c-1.737,1.95-2.602,4.267-2.602,6.96c0,2.74,0.864,5.086,2.602,7.041c1.714,1.926,3.797,2.895,6.26,2.895
		c2.446,0,4.526-0.969,6.237-2.895C519.433,198.492,520.299,196.146,520.299,193.406 M523.595,193.406
		c0,3.639-1.146,6.645-3.442,9.013c-2.273,2.376-5.168,3.558-8.689,3.558c-3.509,0-6.42-1.182-8.717-3.558
		c-2.298-2.368-3.443-5.374-3.443-9.013c0-3.614,1.146-6.604,3.443-8.978c2.297-2.362,5.208-3.557,8.717-3.557
		c3.521,0,6.416,1.194,8.689,3.557C522.449,186.742,523.595,189.743,523.595,193.406"/>
	<path d="M541.17,187.872c0-1.518-0.445-2.628-1.325-3.332c-0.56-0.467-1.729-0.703-3.514-0.703h-3.922v8.76h3.922
		C539.557,192.597,541.17,191.024,541.17,187.872 M545.745,205.498h-3.443l-6.669-10.367h-3.224v10.367h-3.003v-24.189h7.361
		c0.733,0,1.372,0.03,1.926,0.096c0.549,0.06,1.04,0.165,1.488,0.296c0.437,0.13,0.839,0.317,1.205,0.554
		c0.367,0.226,0.733,0.508,1.1,0.855c1.269,1.246,1.901,2.818,1.901,4.728c0,2.001-0.709,3.68-2.126,5.026
		c-0.921,0.898-2.146,1.504-3.664,1.83L545.745,205.498z"/>
	<polygon points="566.23,183.837 558.16,183.837 558.16,205.498 555.16,205.498 555.16,183.837 547.092,183.837 547.092,181.309 
		566.23,181.309 	"/>
	<path d="M589.348,193.406c0-2.693-0.861-5.01-2.599-6.96c-1.735-1.96-3.81-2.927-6.224-2.927c-2.447,0-4.538,0.967-6.273,2.927
		c-1.732,1.95-2.599,4.267-2.599,6.96c0,2.74,0.866,5.086,2.599,7.041c1.714,1.926,3.802,2.895,6.273,2.895
		c2.438,0,4.513-0.969,6.224-2.895C588.486,198.492,589.348,196.146,589.348,193.406 M592.645,193.406
		c0,3.639-1.146,6.645-3.438,9.013c-2.278,2.376-5.173,3.558-8.681,3.558c-3.522,0-6.428-1.182-8.726-3.558
		c-2.297-2.368-3.442-5.374-3.442-9.013c0-3.614,1.146-6.604,3.442-8.978c2.298-2.362,5.203-3.557,8.726-3.557
		c3.508,0,6.402,1.194,8.681,3.557C591.498,186.742,592.645,189.743,592.645,193.406"/>
	<polygon points="172.01,143.094 161.639,143.094 161.639,149.323 170.142,149.323 170.142,153.206 161.639,153.206 
		161.639,163.359 157.022,163.359 157.022,139.17 172.01,139.17 	"/>
	<path d="M186.556,153.465l-2.823-8.766l-2.782,8.766H186.556z M194.545,163.359h-4.838l-1.905-5.974h-8.098l-1.982,5.974h-4.834
		l8.759-24.189h4.141L194.545,163.359z"/>
	<path d="M215.98,141.05l-1.76,3.649c-1.559-1.116-3.417-1.676-5.567-1.676c-2.348,0-4.265,0.744-5.753,2.232
		c-1.491,1.469-2.235,3.343-2.235,5.64c0,2.594,0.794,4.685,2.38,6.268c1.563,1.564,3.678,2.352,6.341,2.352
		c1.636,0,3.405-0.378,5.313-1.135l0.842,3.875c-1.32,0.613-2.407,1.004-3.261,1.181c-0.611,0.117-1.231,0.212-1.87,0.282
		c-0.635,0.079-1.308,0.12-2.014,0.12c-3.615,0-6.533-1.005-8.757-3.015c-2.71-2.438-4.069-5.661-4.069-9.672
		c0-3.609,1.234-6.629,3.701-9.051c2.297-2.243,5.336-3.373,9.125-3.373C211.402,138.728,213.928,139.502,215.98,141.05"/>
	<path d="M239.79,153.901c0,2.197-0.243,3.899-0.733,5.092c-0.484,1.206-1.355,2.232-2.599,3.085
		c-1.684,1.168-3.958,1.76-6.813,1.76c-2.859,0-5.145-0.592-6.857-1.76c-1.244-0.853-2.112-1.868-2.599-3.05
		c-0.464-1.17-0.694-2.881-0.694-5.127V139.17h4.578v14.987c0,3.595,1.907,5.393,5.718,5.393c3.588,0,5.383-1.798,5.383-5.393
		V139.17h4.617V153.901z"/>
	<polygon points="260.265,163.359 245.755,163.359 245.755,139.17 250.374,139.17 250.374,159.444 260.265,159.444 	"/>
	<path d="M280.729,151.232c0-2.99-0.927-5.168-2.782-6.563c-1.296-0.95-3.225-1.428-5.791-1.428h-3.663v16.048h3.663
		c2.737,0,4.849-0.697,6.34-2.091C279.984,155.806,280.729,153.82,280.729,151.232 M285.714,151.191
		c0,3.373-1.113,6.243-3.334,8.611c-2.221,2.376-5.481,3.557-9.781,3.557h-8.946V139.17h8.979c4.326,0,7.587,1.176,9.784,3.522
		C284.615,145.036,285.714,147.865,285.714,151.191"/>
	<path d="M300.362,153.465l-2.82-8.766l-2.782,8.766H300.362z M308.352,163.359h-4.835l-1.908-5.974h-8.098l-1.979,5.974h-4.838
		l8.756-24.189h4.147L308.352,163.359z"/>
	<path d="M328.616,151.232c0-2.99-0.929-5.168-2.783-6.563c-1.301-0.95-3.224-1.428-5.793-1.428h-3.665v16.048h3.665
		c2.735,0,4.854-0.697,6.339-2.091C327.872,155.806,328.616,153.82,328.616,151.232 M333.602,151.191
		c0,3.373-1.116,6.243-3.337,8.611c-2.224,2.376-5.479,3.557-9.781,3.557h-8.945V139.17h8.978c4.326,0,7.587,1.176,9.784,3.522
		C332.505,145.036,333.602,147.865,333.602,151.191"/>
	<polygon points="353.012,163.359 337.809,163.359 337.809,139.17 352.539,139.17 352.539,143.094 342.427,143.094 342.427,149.065 
		350.701,149.065 350.701,152.981 342.427,152.981 342.427,159.444 353.012,159.444 	"/>
	<path d="M383.537,151.232c0-2.99-0.932-5.168-2.789-6.563c-1.287-0.95-3.224-1.428-5.787-1.428h-3.663v16.048h3.663
		c2.74,0,4.855-0.697,6.344-2.091C382.793,155.806,383.537,153.82,383.537,151.232 M388.522,151.191c0,3.373-1.11,6.243-3.332,8.611
		c-2.227,2.376-5.479,3.557-9.781,3.557h-8.942V139.17h8.973c4.317,0,7.584,1.176,9.786,3.522
		C387.423,145.036,388.522,147.865,388.522,151.191"/>
	<polygon points="407.933,163.359 392.729,163.359 392.729,139.17 407.46,139.17 407.46,143.094 397.348,143.094 397.348,149.065 
		405.627,149.065 405.627,152.981 397.348,152.981 397.348,159.444 407.933,159.444 	"/>
	<path d="M433.661,156.395c0-2.268-1.482-3.402-4.432-3.402h-3.011v6.664h3.011c1.22,0,2.146-0.142,2.784-0.438
		C433.104,158.676,433.661,157.736,433.661,156.395 M432.964,145.915c0-2.056-1.247-3.076-3.734-3.076h-3.011v6.227h2.753
		C431.631,149.065,432.964,148.02,432.964,145.915 M438.718,156.913c0,4.302-2.493,6.446-7.479,6.446h-9.857V139.17h8.761
		c2.811,0,4.822,0.538,6.047,1.613c1.263,1.13,1.901,2.569,1.901,4.323c0,0.738-0.117,1.431-0.343,2.085
		c-0.236,0.663-0.578,1.241-1.051,1.749c-0.462,0.497-1.029,0.898-1.684,1.206c-0.654,0.307-1.412,0.483-2.272,0.532
		c1.83,0.052,3.288,0.624,4.358,1.724C438.18,153.5,438.718,155.001,438.718,156.913"/>
	<polygon points="458.486,163.359 443.277,163.359 443.277,139.17 458.009,139.17 458.009,143.094 447.896,143.094 447.896,149.065 
		456.178,149.065 456.178,152.981 447.896,152.981 447.896,159.444 458.486,159.444 	"/>
	<polygon points="477.53,163.359 463.016,163.359 463.016,139.17 467.635,139.17 467.635,159.444 477.53,159.444 	"/>
	<path d="M491.582,153.465l-2.823-8.766l-2.789,8.766H491.582z M499.568,163.359h-4.833l-1.915-5.974h-8.092l-1.977,5.974h-4.839
		l8.755-24.189h4.135L499.568,163.359z"/>
	<path d="M518.186,140.783l-1.832,4.142c-2.64-1.146-4.73-1.725-6.273-1.725c-1.092,0-1.96,0.206-2.599,0.613
		c-0.636,0.402-0.95,0.939-0.95,1.624c0,0.88,0.763,1.732,2.311,2.569c3.756,2.004,6.164,3.552,7.218,4.654
		c1.122,1.094,1.684,2.533,1.684,4.317c0,2.158-0.738,3.834-2.216,5.04c-1.477,1.211-3.573,1.819-6.286,1.819
		c-0.364,0-0.73-0.017-1.097-0.041c-0.367-0.024-0.72-0.065-1.063-0.114c-1.371-0.188-3.06-0.755-5.059-1.675
		c-0.146-0.079-0.353-0.18-0.603-0.297c-0.258-0.13-0.584-0.271-0.973-0.447l1.941-4.242c0.782,0.413,1.467,0.769,2.051,1.057
		c0.584,0.296,1.051,0.502,1.396,0.627c1.222,0.465,2.379,0.69,3.479,0.69c1.097,0,1.961-0.212,2.585-0.649
		c0.622-0.448,0.935-1.026,0.935-1.768c0-0.926-0.709-1.79-2.127-2.604l-3.738-2.121c-2.103-1.197-3.568-2.283-4.399-3.258
		c-0.804-0.976-1.206-2.127-1.206-3.443c0-1.241,0.318-2.376,0.956-3.373c0.19-0.337,0.438-0.657,0.744-0.953
		c0.307-0.293,0.657-0.578,1.054-0.85c1.559-1.07,3.584-1.607,6.077-1.607c1.635,0,3.147,0.209,4.543,0.627
		c0.489,0.142,1.016,0.331,1.575,0.567C516.874,140.186,517.499,140.471,518.186,140.783"/>
	<path d="M542.131,153.465l-2.824-8.766l-2.78,8.766H542.131z M550.123,163.359h-4.84l-1.9-5.974h-8.103l-1.98,5.974h-4.839
		l8.761-24.189h4.141L550.123,163.359z"/>
	<path d="M565.367,146.317c0-1.168-0.317-2.001-0.956-2.493c-0.638-0.488-1.719-0.73-3.261-0.73h-3.001v6.675h3.001
		C563.961,149.769,565.367,148.614,565.367,146.317 M571.051,163.359h-5.064l-5.534-9.675h-2.303v9.675h-4.619V139.17h8.057
		c0.886,0,1.654,0.03,2.309,0.096c0.668,0.06,1.241,0.154,1.743,0.296c0.497,0.13,0.959,0.313,1.357,0.543
		c0.402,0.236,0.782,0.519,1.16,0.863c1.312,1.217,1.971,2.971,1.971,5.244c0,1.903-0.437,3.413-1.322,4.543
		c-0.755,0.996-2.007,1.743-3.774,2.227L571.051,163.359z"/>
	<polygon points="591.086,143.094 583.832,143.094 583.832,163.359 579.214,163.359 579.214,143.094 571.96,143.094 571.96,139.17 
		591.086,139.17 	"/>
	<polygon points="609.903,163.359 594.7,163.359 594.7,139.17 609.432,139.17 609.432,143.094 599.318,143.094 599.318,149.065 
		607.601,149.065 607.601,152.981 599.318,152.981 599.318,159.444 609.903,159.444 	"/>
	<path d="M629.643,140.783l-1.83,4.142c-2.64-1.146-4.726-1.725-6.273-1.725c-1.097,0-1.96,0.206-2.593,0.613
		c-0.639,0.402-0.95,0.939-0.95,1.624c0,0.88,0.769,1.732,2.303,2.569c3.758,2.004,6.166,3.552,7.218,4.654
		c1.124,1.094,1.684,2.533,1.684,4.317c0,2.158-0.739,3.834-2.214,5.04c-1.477,1.211-3.573,1.819-6.286,1.819
		c-0.366,0-0.73-0.017-1.097-0.041c-0.367-0.024-0.723-0.065-1.064-0.114c-1.363-0.188-3.047-0.755-5.057-1.675
		c-0.146-0.079-0.348-0.18-0.603-0.297c-0.258-0.13-0.578-0.271-0.967-0.447l1.937-4.242c0.784,0.413,1.466,0.769,2.056,1.057
		c0.583,0.296,1.051,0.502,1.388,0.627c1.225,0.465,2.387,0.69,3.479,0.69c1.1,0,1.968-0.212,2.587-0.649
		c0.628-0.448,0.935-1.026,0.935-1.768c0-0.926-0.709-1.79-2.126-2.604l-3.734-2.121c-2.102-1.197-3.567-2.283-4.394-3.258
		c-0.817-0.976-1.216-2.127-1.216-3.443c0-1.241,0.317-2.376,0.955-3.373c0.19-0.337,0.448-0.657,0.755-0.953
		c0.296-0.293,0.652-0.578,1.04-0.85c1.559-1.07,3.593-1.607,6.08-1.607c1.635,0,3.153,0.209,4.54,0.627
		c0.497,0.142,1.016,0.331,1.584,0.567C628.339,140.186,628.958,140.471,629.643,140.783"/>
	<path d="M167.622,65.078c0.907,0.558,2.064,1.059,3.488,1.515c1.417,0.451,2.926,0.676,4.524,0.676
		c4.371,0,8.29-1.374,11.757-4.117c3.467-2.751,5.204-7.29,5.204-13.621c0-6.747-1.544-11.702-4.631-14.865
		c-3.086-3.169-7.752-4.749-13.993-4.749h-6.35V65.078z M157.007,29.918h-10.3v-1.666h29.657c8.394,0,15.071,1.598,20.027,4.796
		c4.961,3.204,7.442,8.382,7.442,15.547c0,6.813-2.62,11.907-7.859,15.283c-5.236,3.373-11.429,5.056-18.57,5.056
		c-4.161,0-7.424-0.589-9.781-1.768v32.773h10.614v1.665h-31.529v-1.665h10.3V29.918z"/>
	<path d="M246.078,101.5c5.617,0,9.987-1.958,13.109-5.871s5.219-8.554,6.294-13.919c1.075-5.372,1.612-10.965,1.612-16.78
		c0-6.031-0.502-11.673-1.509-16.938c-1.004-5.263-3.065-9.849-6.19-13.765c-3.122-3.913-7.561-5.868-13.316-5.868
		c-5.621,0-9.992,1.955-13.113,5.868c-3.121,3.916-5.218,8.553-6.293,13.923c-1.078,5.368-1.612,10.959-1.612,16.78
		c0,6.024,0.502,11.668,1.509,16.935c1.004,5.265,3.063,9.852,6.188,13.765C235.879,99.543,240.318,101.5,246.078,101.5
		 M246.078,26.696c8.81,0,16.488,3.736,23.044,11.22c6.557,7.48,9.835,16.482,9.835,27.014c0,10.597-3.242,19.618-9.734,27.063
		c-6.483,7.449-14.2,11.173-23.145,11.173c-8.813,0-16.495-3.742-23.048-11.219c-6.557-7.481-9.834-16.489-9.834-27.018
		c0-10.6,3.246-19.622,9.731-27.071C229.409,30.415,237.126,26.696,246.078,26.696"/>
	<path d="M307.376,63.104h5.201c6.453,0,11.312-1.267,14.57-3.806c3.267-2.54,4.896-6.73,4.896-12.579
		c0-5.005-1.252-9.06-3.75-12.155c-2.498-3.098-7.112-4.646-13.84-4.646h-7.077V63.104z M296.765,29.918H286.36v-1.666h31.943
		c7.426,0,13.443,1.288,18.052,3.86c4.619,2.575,6.922,7.446,6.922,14.61c0,5.635-2.292,9.704-6.87,12.213
		c-4.576,2.498-9.711,4.101-15.398,4.795c6.589,0.694,11.36,2.17,14.307,4.421c2.954,2.259,4.807,6.645,5.563,13.166l1.459,12.693
		c0.348,2.634,1.023,4.386,2.025,5.254c1.016,0.865,2.14,1.298,3.386,1.298c1.111,0,2.534-0.345,4.27-1.042l0.627,1.355
		c-1.116,0.417-2.347,0.745-3.698,0.987c-1.353,0.245-2.966,0.367-4.837,0.367c-5.759,0-9.452-1.339-11.087-4.005
		c-1.624-2.672-2.895-7.582-3.791-14.726l-0.732-6.243c-0.419-4.021-1.578-7.112-3.481-9.258c-1.912-2.153-5.537-3.225-10.878-3.225
		h-6.764v35.165h10.614v1.665h-31.63v-1.665h10.405V29.918z"/>
	<path d="M382.732,29.918h-2.186c-9.426,0-15.567,1.199-18.416,3.591c-2.841,2.389-4.264,7.817-4.264,16.282H356.2V28.252h63.686
		v21.539h-1.664c0-8.393-1.432-13.804-4.267-16.231c-2.846-2.428-8.953-3.642-18.315-3.642h-2.292v70.021h10.721v1.665h-32.051
		v-1.665h10.715V29.918z"/>
	<path d="M460.382,101.5c5.624,0,9.995-1.958,13.113-5.871c3.12-3.913,5.222-8.554,6.297-13.919
		c1.075-5.372,1.613-10.965,1.613-16.78c0-6.031-0.503-11.673-1.508-16.938c-1.004-5.263-3.071-9.849-6.188-13.765
		c-3.125-3.913-7.563-5.868-13.327-5.868c-5.615,0-9.987,1.955-13.113,5.868c-3.117,3.916-5.214,8.553-6.289,13.923
		c-1.075,5.368-1.612,10.959-1.612,16.78c0,6.024,0.502,11.668,1.512,16.935c1.005,5.265,3.061,9.852,6.188,13.765
		C450.188,99.543,454.631,101.5,460.382,101.5 M460.382,26.696c8.814,0,16.491,3.736,23.049,11.22
		c6.555,7.48,9.835,16.482,9.835,27.014c0,10.597-3.244,19.618-9.729,27.063c-6.484,7.449-14.199,11.173-23.154,11.173
		c-8.807,0-16.491-3.742-23.046-11.219c-6.55-7.481-9.83-16.489-9.83-27.018c0-10.6,3.242-19.622,9.729-27.071
		C443.72,30.415,451.439,26.696,460.382,26.696"/>
	<path d="M10.357,9.469v110.924h126.102V9.469H10.357z M100.13,30.024h-2.706c-1.872,0-3.243,0.712-4.111,2.133
		c-0.869,1.417-1.303,3.617-1.303,6.594v38.862c0,7.893-2.271,14.091-6.813,18.594c-4.542,4.502-11.432,6.755-20.658,6.755
		c-8.529,0-15.345-2.304-20.443-6.911c-5.101-4.606-7.646-10.927-7.646-18.958V30.024h-8.116v-1.869H61.11v1.869h-8.426v45.714
		c0,7.614,1.264,13.435,3.795,17.451c2.531,4.018,7.363,6.668,14.409,6.024c5.571-0.508,8.757-1.798,12.292-5.401
		c3.541-3.604,5.304-8.795,5.304-15.584V38.751c0-3.116-0.499-5.349-1.506-6.698c-1.003-1.35-1.798-2.029-4.436-2.029h-3.016v-1.869
		h20.603V30.024z M116.641,100.249c-1.426,1.426-3.171,2.139-5.232,2.139c-2.067,0-3.813-0.713-5.24-2.139
		c-1.429-1.423-2.138-3.169-2.138-5.237c0-2.061,0.709-3.806,2.138-5.232c1.426-1.424,3.172-2.139,5.24-2.139
		c2.061,0,3.806,0.714,5.232,2.139c1.424,1.427,2.139,3.172,2.139,5.232C118.78,97.08,118.065,98.826,116.641,100.249z"/>
</g>
</svg>
